<svg width="200" height="154" viewBox="0 0 200 154" fill="none" xmlns="http://www.w3.org/2000/svg">
<g clip-path="url(#clip0_4_12)" filter="url(#filter0_i_4_12)">
<path d="M150 0L134.918 4.58H143.63L141.937 15.4922L150 0Z" fill="url(#paint0_linear_4_12)"/>
<path d="M93.5299 12.5911C101.973 12.6489 109.96 15.42 116.6 21.0522C117.97 22.1634 119.019 23.2367 120.241 24.6156C125.592 19.7522 130.25 15.4211 138.649 8.04001H58.1143L69.6588 21.7034L70.4577 21.0556C77.0955 15.4222 85.0855 12.6489 93.5299 12.5911Z" fill="url(#paint1_linear_4_12)"/>
<path d="M95.5955 46.1478L97.0233 44.9345C100.7 41.8089 103.829 39.1223 106.564 36.75C106.124 34.3378 105.55 32.0689 104.86 29.9823C101.293 31.1767 97.4822 31.8245 93.5288 31.8245C89.5755 31.8245 85.7644 31.1767 82.1977 29.9823C81.6821 31.5423 81.231 33.2045 80.8521 34.9523L90.3099 46.1478H95.5955Z" fill="url(#paint2_linear_4_12)"/>
<path d="M78.2588 28.3945C76.2155 27.4245 74.2788 26.2656 72.4699 24.94L72.4266 24.98L77.4733 30.9534C77.7177 30.0767 77.9799 29.2234 78.2588 28.3945Z" fill="url(#paint3_linear_4_12)"/>
<path d="M68.2988 23.0422C61.841 29.5 57.8477 38.4212 57.8477 48.2734C57.8477 55.5445 60.0232 62.309 63.7588 67.9501C65.0477 67.7267 66.5244 67.159 67.9232 66.5056C64.6421 61.9045 62.5699 56.3812 62.171 50.3989H75.2666C75.3799 54.2701 75.8033 57.9778 76.4844 61.4178C77.7077 60.5634 78.9788 59.6356 80.2955 58.639C79.8744 56.0301 79.6066 53.2678 79.5188 50.3989H90.551L92.5133 48.7545L90.311 46.1478H79.5188C79.6421 42.1689 80.1066 38.3945 80.8521 34.9523L77.4733 30.9534C76.211 35.49 75.4266 40.6545 75.2655 46.1478H62.1699C62.6921 38.3145 66.0844 31.2667 71.3033 26.0478C71.6688 25.6823 72.0433 25.3267 72.4255 24.98L69.6577 21.7034C69.0988 22.1567 68.8366 22.5045 68.2988 23.0422Z" fill="url(#paint4_linear_4_12)"/>
<path d="M98.2777 47.7723C87.8877 56.6067 78.6233 63.3323 71.8721 67.209C64.6844 71.3356 58.921 73.5579 58.0999 71.4734C57.5699 70.1279 58.2843 67.6767 59.5877 64.8167C59.051 63.6745 58.5721 62.5001 58.1566 61.2967C49.041 74.099 43.0766 88.6968 65.5388 78.4901C67.1855 77.7423 68.9521 76.849 70.8299 75.8056C77.4144 81.2412 85.2488 83.9012 93.5288 83.9579C101.586 83.9034 109.212 81.3923 115.717 76.2212L108.971 68.2356C110.951 69.1879 112.83 70.3201 114.589 71.609C114.987 71.249 115.376 70.8801 115.756 70.5012C120.974 65.2823 124.367 58.2334 124.889 50.4012H111.793C111.602 56.9201 110.533 62.9745 108.829 68.069L105.569 64.2101C105.349 65.019 105.112 65.8045 104.861 66.5667C101.294 65.3723 97.4833 64.7245 93.5299 64.7245C91.0877 64.7245 88.6999 64.9723 86.3899 65.4423C89.1177 63.3612 91.9711 61.0612 94.9355 58.5301C96.1011 57.5356 97.2244 56.569 98.3133 55.6234L105.569 64.2101C106.688 60.1012 107.387 55.4134 107.541 50.4012H104.226C106.956 47.9423 109.422 45.6512 111.666 43.4923C111.724 44.3689 111.768 45.2545 111.793 46.1501H124.889C124.588 41.6367 123.333 37.3845 121.327 33.5912C122.373 32.4367 123.361 31.3134 124.307 30.21C127.424 35.5089 129.212 41.6845 129.212 48.2756C129.212 59.3745 124.15 69.5279 115.717 76.2223L126.153 88.5757L137.537 15.2034C136.081 16.4978 134.49 17.9256 132.797 19.45C135.666 15.5567 138.488 11.5367 141.861 6.95223C125.866 22.9645 121.251 28.24 98.2777 47.7723ZM75.9544 74.3367C77.1799 73.509 78.4666 72.7656 79.8077 72.1145C79.931 72.3879 80.0577 72.659 80.1855 72.9245C81.101 74.8256 82.1277 76.5245 83.2477 77.9856C80.6444 77.0845 78.1966 75.8512 75.9544 74.3367ZM106.873 72.9234C107.001 72.6579 107.128 72.3879 107.251 72.1134C108.592 72.7645 109.88 73.509 111.104 74.3356C108.862 75.8501 106.414 77.0845 103.81 77.9845C104.931 76.5234 105.958 74.8245 106.873 72.9234ZM93.5299 68.9734C96.9533 68.9734 100.243 69.5179 103.317 70.5234L103.054 71.0812C100.488 76.409 97.1099 79.7056 93.5299 79.7056C89.951 79.7056 86.5733 76.409 84.0055 71.0812L83.7433 70.5234C86.8166 69.519 90.1066 68.9734 93.5299 68.9734Z" fill="url(#paint5_linear_4_12)"/>
<path d="M117.089 27.4656C116.302 26.5767 115.47 25.7356 114.59 24.94C112.781 26.2656 110.844 27.4245 108.801 28.3945C109.348 30.0189 109.83 31.7423 110.239 33.5467C112.842 31.2667 115.06 29.2911 117.089 27.4656Z" fill="url(#paint6_linear_4_12)"/>
<path d="M83.2499 18.5611C80.6455 19.4622 78.1966 20.6956 75.9544 22.21C77.1799 23.0378 78.4677 23.7811 79.8088 24.4334C80.7377 22.3711 81.8721 20.3578 83.2499 18.5611Z" fill="url(#paint7_linear_4_12)"/>
<path d="M83.7433 26.0245C86.8166 27.0289 90.1066 27.5745 93.5299 27.5745C96.9533 27.5745 100.243 27.03 103.317 26.0245C101.56 22.29 98.2577 16.8422 93.5299 16.8422C88.8033 16.8422 85.4999 22.29 83.7433 26.0245Z" fill="url(#paint8_linear_4_12)"/>
<path d="M107.251 24.4334C108.592 23.7823 109.88 23.0378 111.106 22.21C108.863 20.6945 106.414 19.4622 103.81 18.5611C105.188 20.3578 106.321 22.3711 107.251 24.4334Z" fill="url(#paint9_linear_4_12)"/>
<path d="M12.2579 136.825C4.58733 136.825 0.0752021 134.042 0 127.575H9.43787C9.51307 128.853 10.2275 129.869 12.2579 129.869C13.8372 129.869 14.326 129.267 14.326 128.44C14.326 127.5 13.4988 127.049 11.2803 126.785C3.27129 125.92 0.526415 123.702 0.526415 117.987C0.526415 112.76 4.70013 109 11.8443 109C18.8757 109 22.6734 111.745 23.1246 117.911H13.8748C13.7996 116.746 13.0852 115.956 11.8067 115.956C10.6035 115.956 10.0019 116.445 10.0019 117.235C10.0019 118.137 10.7163 118.626 13.01 118.851C19.6654 119.491 23.9143 121.108 23.9143 127.349C23.9143 132.463 20.0038 136.825 12.2579 136.825ZM39.9699 136.825C29.7424 136.825 25.1927 131.26 25.1927 123.025V122.724C25.1927 114.302 31.3593 109 39.4811 109C47.1893 109 52.1151 112.384 52.7919 120.13H42.414C42.3012 118.099 41.2484 116.896 39.5187 116.896C37.1498 116.896 35.7586 118.776 35.7586 122.687V122.988C35.7586 126.785 37.1122 128.816 39.7067 128.816C41.5492 128.816 42.9028 127.838 43.1284 125.582H53.1303C52.8295 132.914 47.4149 136.825 39.9699 136.825ZM68.5467 136.298L59.7481 109.414H70.6524L74.7885 125.808L78.9622 109.414H88.3249L79.7894 136.298H68.5467V136.298ZM90.7313 136.298V109.414H100.846V136.298H90.7313ZM103.177 136.298L111.45 109.414H124.347L132.581 136.298H121.903L121 132.726H113.405L112.502 136.298H103.177V136.298ZM117.24 117.46L115.059 126.033H119.346L117.24 117.46ZM139.237 136.637C136.454 136.637 135.025 136.261 133.747 135.622V128.327C134.612 128.553 135.401 128.741 136.868 128.741C138.673 128.741 139.951 128.064 139.951 125.732V109.414H149.991V125.732C149.991 132.764 146.719 136.637 139.237 136.637V136.637ZM153.901 136.298V109.414H173.98V117.047H163.865V119.34H171.837V126.259H163.865V128.665H174.544V136.298H153.901V136.298ZM188.344 136.825C180.673 136.825 176.161 134.042 176.086 127.575H185.524C185.599 128.853 186.313 129.869 188.344 129.869C189.923 129.869 190.412 129.267 190.412 128.44C190.412 127.5 189.585 127.049 187.366 126.785C179.357 125.92 176.612 123.702 176.612 117.987C176.612 112.76 180.786 109 187.93 109C194.961 109 198.759 111.745 199.21 117.911H189.961C189.885 116.746 189.171 115.956 187.892 115.956C186.689 115.956 186.088 116.445 186.088 117.235C186.088 118.137 186.802 118.626 189.096 118.851C195.751 119.491 200 121.108 200 127.349C200 132.463 196.089 136.825 188.344 136.825V136.825Z" fill="url(#paint10_linear_4_12)"/>
</g>
<defs>
<filter id="filter0_i_4_12" x="0" y="0" width="200" height="157.874" filterUnits="userSpaceOnUse" color-interpolation-filters="sRGB">
<feFlood flood-opacity="0" result="BackgroundImageFix"/>
<feBlend mode="normal" in="SourceGraphic" in2="BackgroundImageFix" result="shape"/>
<feColorMatrix in="SourceAlpha" type="matrix" values="0 0 0 0 0 0 0 0 0 0 0 0 0 0 0 0 0 0 127 0" result="hardAlpha"/>
<feOffset dy="4"/>
<feGaussianBlur stdDeviation="2"/>
<feComposite in2="hardAlpha" operator="arithmetic" k2="-1" k3="1"/>
<feColorMatrix type="matrix" values="0 0 0 0 0 0 0 0 0 0 0 0 0 0 0 0 0 0 0.25 0"/>
<feBlend mode="normal" in2="shape" result="effect1_innerShadow_4_12"/>
</filter>
<linearGradient id="paint0_linear_4_12" x1="134.918" y1="0" x2="150" y2="0" gradientUnits="userSpaceOnUse">
<stop stop-color="#EF4136"/>
<stop offset="1" stop-color="#FBB040"/>
</linearGradient>
<linearGradient id="paint1_linear_4_12" x1="58.1143" y1="8.04001" x2="138.649" y2="8.04001" gradientUnits="userSpaceOnUse">
<stop stop-color="#EF4136"/>
<stop offset="1" stop-color="#FBB040"/>
</linearGradient>
<linearGradient id="paint2_linear_4_12" x1="80.8521" y1="29.9823" x2="106.564" y2="29.9823" gradientUnits="userSpaceOnUse">
<stop stop-color="#EF4136"/>
<stop offset="1" stop-color="#FBB040"/>
</linearGradient>
<linearGradient id="paint3_linear_4_12" x1="72.4266" y1="24.94" x2="78.2588" y2="24.94" gradientUnits="userSpaceOnUse">
<stop stop-color="#EF4136"/>
<stop offset="1" stop-color="#FBB040"/>
</linearGradient>
<linearGradient id="paint4_linear_4_12" x1="57.8477" y1="21.7034" x2="92.5133" y2="21.7034" gradientUnits="userSpaceOnUse">
<stop stop-color="#EF4136"/>
<stop offset="1" stop-color="#FBB040"/>
</linearGradient>
<linearGradient id="paint5_linear_4_12" x1="50" y1="6.95223" x2="141.861" y2="6.95223" gradientUnits="userSpaceOnUse">
<stop stop-color="#EF4136"/>
<stop offset="1" stop-color="#FBB040"/>
</linearGradient>
<linearGradient id="paint6_linear_4_12" x1="108.801" y1="24.94" x2="117.089" y2="24.94" gradientUnits="userSpaceOnUse">
<stop stop-color="#EF4136"/>
<stop offset="1" stop-color="#FBB040"/>
</linearGradient>
<linearGradient id="paint7_linear_4_12" x1="75.9544" y1="18.5611" x2="83.2499" y2="18.5611" gradientUnits="userSpaceOnUse">
<stop stop-color="#EF4136"/>
<stop offset="1" stop-color="#FBB040"/>
</linearGradient>
<linearGradient id="paint8_linear_4_12" x1="83.7433" y1="16.8422" x2="103.317" y2="16.8422" gradientUnits="userSpaceOnUse">
<stop stop-color="#EF4136"/>
<stop offset="1" stop-color="#FBB040"/>
</linearGradient>
<linearGradient id="paint9_linear_4_12" x1="103.81" y1="18.5611" x2="111.106" y2="18.5611" gradientUnits="userSpaceOnUse">
<stop stop-color="#EF4136"/>
<stop offset="1" stop-color="#FBB040"/>
</linearGradient>
<linearGradient id="paint10_linear_4_12" x1="0" y1="109" x2="200" y2="109" gradientUnits="userSpaceOnUse">
<stop stop-color="#EF4136"/>
<stop offset="1" stop-color="#FBB040"/>
</linearGradient>
<clipPath id="clip0_4_12">
<rect width="200" height="153.874" fill="white"/>
</clipPath>
</defs>
</svg>
